<svg height="875pt" viewBox="0.00 0.00 388.00 875.00" width="388pt" xmlns="http://www.w3.org/2000/svg" xmlns:xlink="http://www.w3.org/1999/xlink">
<g class="graph" id="graph0" transform="scale(1 1) rotate(0) translate(4 871)">
<title>G</title>
<polygon fill="white" points="-4,4 -4,-871 384,-871 384,4 -4,4" stroke="none"/>
<!-- 140157091732224 -->
<g class="node" id="node1"><title>140157091732224</title>
<polygon fill="none" points="48.5,-747.5 48.5,-793.5 331.5,-793.5 331.5,-747.5 48.5,-747.5" stroke="black"/>
<text font-family="Times,serif" font-size="14.00" text-anchor="middle" x="103.5" y="-766.8">conv2d: Conv2D</text>
<polyline fill="none" points="158.5,-747.5 158.5,-793.5 " stroke="black"/>
<text font-family="Times,serif" font-size="14.00" text-anchor="middle" x="186" y="-778.3">input:</text>
<polyline fill="none" points="158.5,-770.5 213.5,-770.5 " stroke="black"/>
<text font-family="Times,serif" font-size="14.00" text-anchor="middle" x="186" y="-755.3">output:</text>
<polyline fill="none" points="213.5,-747.5 213.5,-793.5 " stroke="black"/>
<text font-family="Times,serif" font-size="14.00" text-anchor="middle" x="272.5" y="-778.3">(None, 96, 96, 1)</text>
<polyline fill="none" points="213.5,-770.5 331.5,-770.5 " stroke="black"/>
<text font-family="Times,serif" font-size="14.00" text-anchor="middle" x="272.5" y="-755.3">(None, 96, 96, 16)</text>
</g>
<!-- 140157091800680 -->
<g class="node" id="node2"><title>140157091800680</title>
<polygon fill="none" points="6.5,-664.5 6.5,-710.5 373.5,-710.5 373.5,-664.5 6.5,-664.5" stroke="black"/>
<text font-family="Times,serif" font-size="14.00" text-anchor="middle" x="103.5" y="-683.8">max_pooling2d: MaxPooling2D</text>
<polyline fill="none" points="200.5,-664.5 200.5,-710.5 " stroke="black"/>
<text font-family="Times,serif" font-size="14.00" text-anchor="middle" x="228" y="-695.3">input:</text>
<polyline fill="none" points="200.5,-687.5 255.5,-687.5 " stroke="black"/>
<text font-family="Times,serif" font-size="14.00" text-anchor="middle" x="228" y="-672.3">output:</text>
<polyline fill="none" points="255.5,-664.5 255.5,-710.5 " stroke="black"/>
<text font-family="Times,serif" font-size="14.00" text-anchor="middle" x="314.5" y="-695.3">(None, 96, 96, 16)</text>
<polyline fill="none" points="255.5,-687.5 373.5,-687.5 " stroke="black"/>
<text font-family="Times,serif" font-size="14.00" text-anchor="middle" x="314.5" y="-672.3">(None, 48, 48, 16)</text>
</g>
<!-- 140157091732224&#45;&gt;140157091800680 -->
<g class="edge" id="edge2"><title>140157091732224-&gt;140157091800680</title>
<path d="M190,-747.366C190,-739.152 190,-729.658 190,-720.725" fill="none" stroke="black"/>
<polygon fill="black" points="193.5,-720.607 190,-710.607 186.5,-720.607 193.5,-720.607" stroke="black"/>
</g>
<!-- 140157091802976 -->
<g class="node" id="node3"><title>140157091802976</title>
<polygon fill="none" points="48,-581.5 48,-627.5 332,-627.5 332,-581.5 48,-581.5" stroke="black"/>
<text font-family="Times,serif" font-size="14.00" text-anchor="middle" x="103.5" y="-600.8">dropout: Dropout</text>
<polyline fill="none" points="159,-581.5 159,-627.5 " stroke="black"/>
<text font-family="Times,serif" font-size="14.00" text-anchor="middle" x="186.5" y="-612.3">input:</text>
<polyline fill="none" points="159,-604.5 214,-604.5 " stroke="black"/>
<text font-family="Times,serif" font-size="14.00" text-anchor="middle" x="186.5" y="-589.3">output:</text>
<polyline fill="none" points="214,-581.5 214,-627.5 " stroke="black"/>
<text font-family="Times,serif" font-size="14.00" text-anchor="middle" x="273" y="-612.3">(None, 48, 48, 16)</text>
<polyline fill="none" points="214,-604.5 332,-604.5 " stroke="black"/>
<text font-family="Times,serif" font-size="14.00" text-anchor="middle" x="273" y="-589.3">(None, 48, 48, 16)</text>
</g>
<!-- 140157091800680&#45;&gt;140157091802976 -->
<g class="edge" id="edge3"><title>140157091800680-&gt;140157091802976</title>
<path d="M190,-664.366C190,-656.152 190,-646.658 190,-637.725" fill="none" stroke="black"/>
<polygon fill="black" points="193.5,-637.607 190,-627.607 186.5,-637.607 193.5,-637.607" stroke="black"/>
</g>
<!-- 140157091799504 -->
<g class="node" id="node4"><title>140157091799504</title>
<polygon fill="none" points="42,-498.5 42,-544.5 338,-544.5 338,-498.5 42,-498.5" stroke="black"/>
<text font-family="Times,serif" font-size="14.00" text-anchor="middle" x="103.5" y="-517.8">conv2d_1: Conv2D</text>
<polyline fill="none" points="165,-498.5 165,-544.5 " stroke="black"/>
<text font-family="Times,serif" font-size="14.00" text-anchor="middle" x="192.5" y="-529.3">input:</text>
<polyline fill="none" points="165,-521.5 220,-521.5 " stroke="black"/>
<text font-family="Times,serif" font-size="14.00" text-anchor="middle" x="192.5" y="-506.3">output:</text>
<polyline fill="none" points="220,-498.5 220,-544.5 " stroke="black"/>
<text font-family="Times,serif" font-size="14.00" text-anchor="middle" x="279" y="-529.3">(None, 48, 48, 16)</text>
<polyline fill="none" points="220,-521.5 338,-521.5 " stroke="black"/>
<text font-family="Times,serif" font-size="14.00" text-anchor="middle" x="279" y="-506.3">(None, 48, 48, 32)</text>
</g>
<!-- 140157091802976&#45;&gt;140157091799504 -->
<g class="edge" id="edge4"><title>140157091802976-&gt;140157091799504</title>
<path d="M190,-581.366C190,-573.152 190,-563.658 190,-554.725" fill="none" stroke="black"/>
<polygon fill="black" points="193.5,-554.607 190,-544.607 186.5,-554.607 193.5,-554.607" stroke="black"/>
</g>
<!-- 140157091524680 -->
<g class="node" id="node5"><title>140157091524680</title>
<polygon fill="none" points="0,-415.5 0,-461.5 380,-461.5 380,-415.5 0,-415.5" stroke="black"/>
<text font-family="Times,serif" font-size="14.00" text-anchor="middle" x="103.5" y="-434.8">max_pooling2d_1: MaxPooling2D</text>
<polyline fill="none" points="207,-415.5 207,-461.5 " stroke="black"/>
<text font-family="Times,serif" font-size="14.00" text-anchor="middle" x="234.5" y="-446.3">input:</text>
<polyline fill="none" points="207,-438.5 262,-438.5 " stroke="black"/>
<text font-family="Times,serif" font-size="14.00" text-anchor="middle" x="234.5" y="-423.3">output:</text>
<polyline fill="none" points="262,-415.5 262,-461.5 " stroke="black"/>
<text font-family="Times,serif" font-size="14.00" text-anchor="middle" x="321" y="-446.3">(None, 48, 48, 32)</text>
<polyline fill="none" points="262,-438.5 380,-438.5 " stroke="black"/>
<text font-family="Times,serif" font-size="14.00" text-anchor="middle" x="321" y="-423.3">(None, 24, 24, 32)</text>
</g>
<!-- 140157091799504&#45;&gt;140157091524680 -->
<g class="edge" id="edge5"><title>140157091799504-&gt;140157091524680</title>
<path d="M190,-498.366C190,-490.152 190,-480.658 190,-471.725" fill="none" stroke="black"/>
<polygon fill="black" points="193.5,-471.607 190,-461.607 186.5,-471.607 193.5,-471.607" stroke="black"/>
</g>
<!-- 140157091525016 -->
<g class="node" id="node6"><title>140157091525016</title>
<polygon fill="none" points="41,-332.5 41,-378.5 339,-378.5 339,-332.5 41,-332.5" stroke="black"/>
<text font-family="Times,serif" font-size="14.00" text-anchor="middle" x="103.5" y="-351.8">dropout_1: Dropout</text>
<polyline fill="none" points="166,-332.5 166,-378.5 " stroke="black"/>
<text font-family="Times,serif" font-size="14.00" text-anchor="middle" x="193.5" y="-363.3">input:</text>
<polyline fill="none" points="166,-355.5 221,-355.5 " stroke="black"/>
<text font-family="Times,serif" font-size="14.00" text-anchor="middle" x="193.5" y="-340.3">output:</text>
<polyline fill="none" points="221,-332.5 221,-378.5 " stroke="black"/>
<text font-family="Times,serif" font-size="14.00" text-anchor="middle" x="280" y="-363.3">(None, 24, 24, 32)</text>
<polyline fill="none" points="221,-355.5 339,-355.5 " stroke="black"/>
<text font-family="Times,serif" font-size="14.00" text-anchor="middle" x="280" y="-340.3">(None, 24, 24, 32)</text>
</g>
<!-- 140157091524680&#45;&gt;140157091525016 -->
<g class="edge" id="edge6"><title>140157091524680-&gt;140157091525016</title>
<path d="M190,-415.366C190,-407.152 190,-397.658 190,-388.725" fill="none" stroke="black"/>
<polygon fill="black" points="193.5,-388.607 190,-378.607 186.5,-388.607 193.5,-388.607" stroke="black"/>
</g>
<!-- 140157091525072 -->
<g class="node" id="node7"><title>140157091525072</title>
<polygon fill="none" points="55.5,-249.5 55.5,-295.5 324.5,-295.5 324.5,-249.5 55.5,-249.5" stroke="black"/>
<text font-family="Times,serif" font-size="14.00" text-anchor="middle" x="103.5" y="-268.8">flatten: Flatten</text>
<polyline fill="none" points="151.5,-249.5 151.5,-295.5 " stroke="black"/>
<text font-family="Times,serif" font-size="14.00" text-anchor="middle" x="179" y="-280.3">input:</text>
<polyline fill="none" points="151.5,-272.5 206.5,-272.5 " stroke="black"/>
<text font-family="Times,serif" font-size="14.00" text-anchor="middle" x="179" y="-257.3">output:</text>
<polyline fill="none" points="206.5,-249.5 206.5,-295.5 " stroke="black"/>
<text font-family="Times,serif" font-size="14.00" text-anchor="middle" x="265.5" y="-280.3">(None, 24, 24, 32)</text>
<polyline fill="none" points="206.5,-272.5 324.5,-272.5 " stroke="black"/>
<text font-family="Times,serif" font-size="14.00" text-anchor="middle" x="265.5" y="-257.3">(None, 18432)</text>
</g>
<!-- 140157091525016&#45;&gt;140157091525072 -->
<g class="edge" id="edge7"><title>140157091525016-&gt;140157091525072</title>
<path d="M190,-332.366C190,-324.152 190,-314.658 190,-305.725" fill="none" stroke="black"/>
<polygon fill="black" points="193.5,-305.607 190,-295.607 186.5,-305.607 193.5,-305.607" stroke="black"/>
</g>
<!-- 140157091525240 -->
<g class="node" id="node8"><title>140157091525240</title>
<polygon fill="none" points="70,-166.5 70,-212.5 310,-212.5 310,-166.5 70,-166.5" stroke="black"/>
<text font-family="Times,serif" font-size="14.00" text-anchor="middle" x="114.5" y="-185.8">dense: Dense</text>
<polyline fill="none" points="159,-166.5 159,-212.5 " stroke="black"/>
<text font-family="Times,serif" font-size="14.00" text-anchor="middle" x="186.5" y="-197.3">input:</text>
<polyline fill="none" points="159,-189.5 214,-189.5 " stroke="black"/>
<text font-family="Times,serif" font-size="14.00" text-anchor="middle" x="186.5" y="-174.3">output:</text>
<polyline fill="none" points="214,-166.5 214,-212.5 " stroke="black"/>
<text font-family="Times,serif" font-size="14.00" text-anchor="middle" x="262" y="-197.3">(None, 18432)</text>
<polyline fill="none" points="214,-189.5 310,-189.5 " stroke="black"/>
<text font-family="Times,serif" font-size="14.00" text-anchor="middle" x="262" y="-174.3">(None, 256)</text>
</g>
<!-- 140157091525072&#45;&gt;140157091525240 -->
<g class="edge" id="edge8"><title>140157091525072-&gt;140157091525240</title>
<path d="M190,-249.366C190,-241.152 190,-231.658 190,-222.725" fill="none" stroke="black"/>
<polygon fill="black" points="193.5,-222.607 190,-212.607 186.5,-222.607 193.5,-222.607" stroke="black"/>
</g>
<!-- 140157091525744 -->
<g class="node" id="node9"><title>140157091525744</title>
<polygon fill="none" points="58.5,-83.5 58.5,-129.5 321.5,-129.5 321.5,-83.5 58.5,-83.5" stroke="black"/>
<text font-family="Times,serif" font-size="14.00" text-anchor="middle" x="121" y="-102.8">dropout_2: Dropout</text>
<polyline fill="none" points="183.5,-83.5 183.5,-129.5 " stroke="black"/>
<text font-family="Times,serif" font-size="14.00" text-anchor="middle" x="211" y="-114.3">input:</text>
<polyline fill="none" points="183.5,-106.5 238.5,-106.5 " stroke="black"/>
<text font-family="Times,serif" font-size="14.00" text-anchor="middle" x="211" y="-91.3">output:</text>
<polyline fill="none" points="238.5,-83.5 238.5,-129.5 " stroke="black"/>
<text font-family="Times,serif" font-size="14.00" text-anchor="middle" x="280" y="-114.3">(None, 256)</text>
<polyline fill="none" points="238.5,-106.5 321.5,-106.5 " stroke="black"/>
<text font-family="Times,serif" font-size="14.00" text-anchor="middle" x="280" y="-91.3">(None, 256)</text>
</g>
<!-- 140157091525240&#45;&gt;140157091525744 -->
<g class="edge" id="edge9"><title>140157091525240-&gt;140157091525744</title>
<path d="M190,-166.366C190,-158.152 190,-148.658 190,-139.725" fill="none" stroke="black"/>
<polygon fill="black" points="193.5,-139.607 190,-129.607 186.5,-139.607 193.5,-139.607" stroke="black"/>
</g>
<!-- 140157091525856 -->
<g class="node" id="node10"><title>140157091525856</title>
<polygon fill="none" points="70,-0.5 70,-46.5 310,-46.5 310,-0.5 70,-0.5" stroke="black"/>
<text font-family="Times,serif" font-size="14.00" text-anchor="middle" x="121" y="-19.8">dense_1: Dense</text>
<polyline fill="none" points="172,-0.5 172,-46.5 " stroke="black"/>
<text font-family="Times,serif" font-size="14.00" text-anchor="middle" x="199.5" y="-31.3">input:</text>
<polyline fill="none" points="172,-23.5 227,-23.5 " stroke="black"/>
<text font-family="Times,serif" font-size="14.00" text-anchor="middle" x="199.5" y="-8.3">output:</text>
<polyline fill="none" points="227,-0.5 227,-46.5 " stroke="black"/>
<text font-family="Times,serif" font-size="14.00" text-anchor="middle" x="268.5" y="-31.3">(None, 256)</text>
<polyline fill="none" points="227,-23.5 310,-23.5 " stroke="black"/>
<text font-family="Times,serif" font-size="14.00" text-anchor="middle" x="268.5" y="-8.3">(None, 4)</text>
</g>
<!-- 140157091525744&#45;&gt;140157091525856 -->
<g class="edge" id="edge10"><title>140157091525744-&gt;140157091525856</title>
<path d="M190,-83.3664C190,-75.1516 190,-65.6579 190,-56.7252" fill="none" stroke="black"/>
<polygon fill="black" points="193.5,-56.6068 190,-46.6068 186.5,-56.6069 193.5,-56.6068" stroke="black"/>
</g>
<!-- 140157091526920 -->
<g class="node" id="node11"><title>140157091526920</title>
<polygon fill="none" points="131,-830.5 131,-866.5 249,-866.5 249,-830.5 131,-830.5" stroke="black"/>
<text font-family="Times,serif" font-size="14.00" text-anchor="middle" x="190" y="-844.8">140157091526920</text>
</g>
<!-- 140157091526920&#45;&gt;140157091732224 -->
<g class="edge" id="edge1"><title>140157091526920-&gt;140157091732224</title>
<path d="M190,-830.254C190,-822.363 190,-812.749 190,-803.602" fill="none" stroke="black"/>
<polygon fill="black" points="193.5,-803.591 190,-793.591 186.5,-803.591 193.5,-803.591" stroke="black"/>
</g>
</g>
</svg>