<svg height="1788pt" viewBox="0.00 0.00 476.00 1788.00" width="476pt" xmlns="http://www.w3.org/2000/svg" xmlns:xlink="http://www.w3.org/1999/xlink">
<g class="graph" id="graph0" transform="scale(1 1) rotate(0) translate(4 1784)">
<title>G</title>
<polygon fill="white" points="-4,4 -4,-1784 472,-1784 472,4 -4,4" stroke="none"/>
<!-- 140156326654304 -->
<g class="node" id="node1"><title>140156326654304</title>
<polygon fill="none" points="9.5,-1660.5 9.5,-1706.5 458.5,-1706.5 458.5,-1660.5 9.5,-1660.5" stroke="black"/>
<text font-family="Times,serif" font-size="14.00" text-anchor="middle" x="151" y="-1679.8">batch_normalization_v1: BatchNormalizationV1</text>
<polyline fill="none" points="292.5,-1660.5 292.5,-1706.5 " stroke="black"/>
<text font-family="Times,serif" font-size="14.00" text-anchor="middle" x="320" y="-1691.3">input:</text>
<polyline fill="none" points="292.5,-1683.5 347.5,-1683.5 " stroke="black"/>
<text font-family="Times,serif" font-size="14.00" text-anchor="middle" x="320" y="-1668.3">output:</text>
<polyline fill="none" points="347.5,-1660.5 347.5,-1706.5 " stroke="black"/>
<text font-family="Times,serif" font-size="14.00" text-anchor="middle" x="403" y="-1691.3">(None, 96, 96, 1)</text>
<polyline fill="none" points="347.5,-1683.5 458.5,-1683.5 " stroke="black"/>
<text font-family="Times,serif" font-size="14.00" text-anchor="middle" x="403" y="-1668.3">(None, 96, 96, 1)</text>
</g>
<!-- 140156326654360 -->
<g class="node" id="node2"><title>140156326654360</title>
<polygon fill="none" points="86,-1577.5 86,-1623.5 382,-1623.5 382,-1577.5 86,-1577.5" stroke="black"/>
<text font-family="Times,serif" font-size="14.00" text-anchor="middle" x="147.5" y="-1596.8">conv2d_2: Conv2D</text>
<polyline fill="none" points="209,-1577.5 209,-1623.5 " stroke="black"/>
<text font-family="Times,serif" font-size="14.00" text-anchor="middle" x="236.5" y="-1608.3">input:</text>
<polyline fill="none" points="209,-1600.5 264,-1600.5 " stroke="black"/>
<text font-family="Times,serif" font-size="14.00" text-anchor="middle" x="236.5" y="-1585.3">output:</text>
<polyline fill="none" points="264,-1577.5 264,-1623.5 " stroke="black"/>
<text font-family="Times,serif" font-size="14.00" text-anchor="middle" x="323" y="-1608.3">(None, 96, 96, 1)</text>
<polyline fill="none" points="264,-1600.5 382,-1600.5 " stroke="black"/>
<text font-family="Times,serif" font-size="14.00" text-anchor="middle" x="323" y="-1585.3">(None, 96, 96, 24)</text>
</g>
<!-- 140156326654304&#45;&gt;140156326654360 -->
<g class="edge" id="edge2"><title>140156326654304-&gt;140156326654360</title>
<path d="M234,-1660.37C234,-1652.15 234,-1642.66 234,-1633.73" fill="none" stroke="black"/>
<polygon fill="black" points="237.5,-1633.61 234,-1623.61 230.5,-1633.61 237.5,-1633.61" stroke="black"/>
</g>
<!-- 140156326654864 -->
<g class="node" id="node3"><title>140156326654864</title>
<polygon fill="none" points="44,-1494.5 44,-1540.5 424,-1540.5 424,-1494.5 44,-1494.5" stroke="black"/>
<text font-family="Times,serif" font-size="14.00" text-anchor="middle" x="147.5" y="-1513.8">max_pooling2d_2: MaxPooling2D</text>
<polyline fill="none" points="251,-1494.5 251,-1540.5 " stroke="black"/>
<text font-family="Times,serif" font-size="14.00" text-anchor="middle" x="278.5" y="-1525.3">input:</text>
<polyline fill="none" points="251,-1517.5 306,-1517.5 " stroke="black"/>
<text font-family="Times,serif" font-size="14.00" text-anchor="middle" x="278.5" y="-1502.3">output:</text>
<polyline fill="none" points="306,-1494.5 306,-1540.5 " stroke="black"/>
<text font-family="Times,serif" font-size="14.00" text-anchor="middle" x="365" y="-1525.3">(None, 96, 96, 24)</text>
<polyline fill="none" points="306,-1517.5 424,-1517.5 " stroke="black"/>
<text font-family="Times,serif" font-size="14.00" text-anchor="middle" x="365" y="-1502.3">(None, 48, 48, 24)</text>
</g>
<!-- 140156326654360&#45;&gt;140156326654864 -->
<g class="edge" id="edge3"><title>140156326654360-&gt;140156326654864</title>
<path d="M234,-1577.37C234,-1569.15 234,-1559.66 234,-1550.73" fill="none" stroke="black"/>
<polygon fill="black" points="237.5,-1550.61 234,-1540.61 230.5,-1550.61 237.5,-1550.61" stroke="black"/>
</g>
<!-- 140156326655088 -->
<g class="node" id="node4"><title>140156326655088</title>
<polygon fill="none" points="85,-1411.5 85,-1457.5 383,-1457.5 383,-1411.5 85,-1411.5" stroke="black"/>
<text font-family="Times,serif" font-size="14.00" text-anchor="middle" x="147.5" y="-1430.8">dropout_3: Dropout</text>
<polyline fill="none" points="210,-1411.5 210,-1457.5 " stroke="black"/>
<text font-family="Times,serif" font-size="14.00" text-anchor="middle" x="237.5" y="-1442.3">input:</text>
<polyline fill="none" points="210,-1434.5 265,-1434.5 " stroke="black"/>
<text font-family="Times,serif" font-size="14.00" text-anchor="middle" x="237.5" y="-1419.3">output:</text>
<polyline fill="none" points="265,-1411.5 265,-1457.5 " stroke="black"/>
<text font-family="Times,serif" font-size="14.00" text-anchor="middle" x="324" y="-1442.3">(None, 48, 48, 24)</text>
<polyline fill="none" points="265,-1434.5 383,-1434.5 " stroke="black"/>
<text font-family="Times,serif" font-size="14.00" text-anchor="middle" x="324" y="-1419.3">(None, 48, 48, 24)</text>
</g>
<!-- 140156326654864&#45;&gt;140156326655088 -->
<g class="edge" id="edge4"><title>140156326654864-&gt;140156326655088</title>
<path d="M234,-1494.37C234,-1486.15 234,-1476.66 234,-1467.73" fill="none" stroke="black"/>
<polygon fill="black" points="237.5,-1467.61 234,-1457.61 230.5,-1467.61 237.5,-1467.61" stroke="black"/>
</g>
<!-- 140156326655144 -->
<g class="node" id="node5"><title>140156326655144</title>
<polygon fill="none" points="86,-1328.5 86,-1374.5 382,-1374.5 382,-1328.5 86,-1328.5" stroke="black"/>
<text font-family="Times,serif" font-size="14.00" text-anchor="middle" x="147.5" y="-1347.8">conv2d_3: Conv2D</text>
<polyline fill="none" points="209,-1328.5 209,-1374.5 " stroke="black"/>
<text font-family="Times,serif" font-size="14.00" text-anchor="middle" x="236.5" y="-1359.3">input:</text>
<polyline fill="none" points="209,-1351.5 264,-1351.5 " stroke="black"/>
<text font-family="Times,serif" font-size="14.00" text-anchor="middle" x="236.5" y="-1336.3">output:</text>
<polyline fill="none" points="264,-1328.5 264,-1374.5 " stroke="black"/>
<text font-family="Times,serif" font-size="14.00" text-anchor="middle" x="323" y="-1359.3">(None, 48, 48, 24)</text>
<polyline fill="none" points="264,-1351.5 382,-1351.5 " stroke="black"/>
<text font-family="Times,serif" font-size="14.00" text-anchor="middle" x="323" y="-1336.3">(None, 44, 44, 36)</text>
</g>
<!-- 140156326655088&#45;&gt;140156326655144 -->
<g class="edge" id="edge5"><title>140156326655088-&gt;140156326655144</title>
<path d="M234,-1411.37C234,-1403.15 234,-1393.66 234,-1384.73" fill="none" stroke="black"/>
<polygon fill="black" points="237.5,-1384.61 234,-1374.61 230.5,-1384.61 237.5,-1384.61" stroke="black"/>
</g>
<!-- 140156326655424 -->
<g class="node" id="node6"><title>140156326655424</title>
<polygon fill="none" points="44,-1245.5 44,-1291.5 424,-1291.5 424,-1245.5 44,-1245.5" stroke="black"/>
<text font-family="Times,serif" font-size="14.00" text-anchor="middle" x="147.5" y="-1264.8">max_pooling2d_3: MaxPooling2D</text>
<polyline fill="none" points="251,-1245.5 251,-1291.5 " stroke="black"/>
<text font-family="Times,serif" font-size="14.00" text-anchor="middle" x="278.5" y="-1276.3">input:</text>
<polyline fill="none" points="251,-1268.5 306,-1268.5 " stroke="black"/>
<text font-family="Times,serif" font-size="14.00" text-anchor="middle" x="278.5" y="-1253.3">output:</text>
<polyline fill="none" points="306,-1245.5 306,-1291.5 " stroke="black"/>
<text font-family="Times,serif" font-size="14.00" text-anchor="middle" x="365" y="-1276.3">(None, 44, 44, 36)</text>
<polyline fill="none" points="306,-1268.5 424,-1268.5 " stroke="black"/>
<text font-family="Times,serif" font-size="14.00" text-anchor="middle" x="365" y="-1253.3">(None, 22, 22, 36)</text>
</g>
<!-- 140156326655144&#45;&gt;140156326655424 -->
<g class="edge" id="edge6"><title>140156326655144-&gt;140156326655424</title>
<path d="M234,-1328.37C234,-1320.15 234,-1310.66 234,-1301.73" fill="none" stroke="black"/>
<polygon fill="black" points="237.5,-1301.61 234,-1291.61 230.5,-1301.61 237.5,-1301.61" stroke="black"/>
</g>
<!-- 140156326655648 -->
<g class="node" id="node7"><title>140156326655648</title>
<polygon fill="none" points="85,-1162.5 85,-1208.5 383,-1208.5 383,-1162.5 85,-1162.5" stroke="black"/>
<text font-family="Times,serif" font-size="14.00" text-anchor="middle" x="147.5" y="-1181.8">dropout_4: Dropout</text>
<polyline fill="none" points="210,-1162.5 210,-1208.5 " stroke="black"/>
<text font-family="Times,serif" font-size="14.00" text-anchor="middle" x="237.5" y="-1193.3">input:</text>
<polyline fill="none" points="210,-1185.5 265,-1185.5 " stroke="black"/>
<text font-family="Times,serif" font-size="14.00" text-anchor="middle" x="237.5" y="-1170.3">output:</text>
<polyline fill="none" points="265,-1162.5 265,-1208.5 " stroke="black"/>
<text font-family="Times,serif" font-size="14.00" text-anchor="middle" x="324" y="-1193.3">(None, 22, 22, 36)</text>
<polyline fill="none" points="265,-1185.5 383,-1185.5 " stroke="black"/>
<text font-family="Times,serif" font-size="14.00" text-anchor="middle" x="324" y="-1170.3">(None, 22, 22, 36)</text>
</g>
<!-- 140156326655424&#45;&gt;140156326655648 -->
<g class="edge" id="edge7"><title>140156326655424-&gt;140156326655648</title>
<path d="M234,-1245.37C234,-1237.15 234,-1227.66 234,-1218.73" fill="none" stroke="black"/>
<polygon fill="black" points="237.5,-1218.61 234,-1208.61 230.5,-1218.61 237.5,-1218.61" stroke="black"/>
</g>
<!-- 140156326655704 -->
<g class="node" id="node8"><title>140156326655704</title>
<polygon fill="none" points="86,-1079.5 86,-1125.5 382,-1125.5 382,-1079.5 86,-1079.5" stroke="black"/>
<text font-family="Times,serif" font-size="14.00" text-anchor="middle" x="147.5" y="-1098.8">conv2d_4: Conv2D</text>
<polyline fill="none" points="209,-1079.5 209,-1125.5 " stroke="black"/>
<text font-family="Times,serif" font-size="14.00" text-anchor="middle" x="236.5" y="-1110.3">input:</text>
<polyline fill="none" points="209,-1102.5 264,-1102.5 " stroke="black"/>
<text font-family="Times,serif" font-size="14.00" text-anchor="middle" x="236.5" y="-1087.3">output:</text>
<polyline fill="none" points="264,-1079.5 264,-1125.5 " stroke="black"/>
<text font-family="Times,serif" font-size="14.00" text-anchor="middle" x="323" y="-1110.3">(None, 22, 22, 36)</text>
<polyline fill="none" points="264,-1102.5 382,-1102.5 " stroke="black"/>
<text font-family="Times,serif" font-size="14.00" text-anchor="middle" x="323" y="-1087.3">(None, 18, 18, 48)</text>
</g>
<!-- 140156326655648&#45;&gt;140156326655704 -->
<g class="edge" id="edge8"><title>140156326655648-&gt;140156326655704</title>
<path d="M234,-1162.37C234,-1154.15 234,-1144.66 234,-1135.73" fill="none" stroke="black"/>
<polygon fill="black" points="237.5,-1135.61 234,-1125.61 230.5,-1135.61 237.5,-1135.61" stroke="black"/>
</g>
<!-- 140156326655984 -->
<g class="node" id="node9"><title>140156326655984</title>
<polygon fill="none" points="44,-996.5 44,-1042.5 424,-1042.5 424,-996.5 44,-996.5" stroke="black"/>
<text font-family="Times,serif" font-size="14.00" text-anchor="middle" x="147.5" y="-1015.8">max_pooling2d_4: MaxPooling2D</text>
<polyline fill="none" points="251,-996.5 251,-1042.5 " stroke="black"/>
<text font-family="Times,serif" font-size="14.00" text-anchor="middle" x="278.5" y="-1027.3">input:</text>
<polyline fill="none" points="251,-1019.5 306,-1019.5 " stroke="black"/>
<text font-family="Times,serif" font-size="14.00" text-anchor="middle" x="278.5" y="-1004.3">output:</text>
<polyline fill="none" points="306,-996.5 306,-1042.5 " stroke="black"/>
<text font-family="Times,serif" font-size="14.00" text-anchor="middle" x="365" y="-1027.3">(None, 18, 18, 48)</text>
<polyline fill="none" points="306,-1019.5 424,-1019.5 " stroke="black"/>
<text font-family="Times,serif" font-size="14.00" text-anchor="middle" x="365" y="-1004.3">(None, 9, 9, 48)</text>
</g>
<!-- 140156326655704&#45;&gt;140156326655984 -->
<g class="edge" id="edge9"><title>140156326655704-&gt;140156326655984</title>
<path d="M234,-1079.37C234,-1071.15 234,-1061.66 234,-1052.73" fill="none" stroke="black"/>
<polygon fill="black" points="237.5,-1052.61 234,-1042.61 230.5,-1052.61 237.5,-1052.61" stroke="black"/>
</g>
<!-- 140156326656208 -->
<g class="node" id="node10"><title>140156326656208</title>
<polygon fill="none" points="92,-913.5 92,-959.5 376,-959.5 376,-913.5 92,-913.5" stroke="black"/>
<text font-family="Times,serif" font-size="14.00" text-anchor="middle" x="154.5" y="-932.8">dropout_5: Dropout</text>
<polyline fill="none" points="217,-913.5 217,-959.5 " stroke="black"/>
<text font-family="Times,serif" font-size="14.00" text-anchor="middle" x="244.5" y="-944.3">input:</text>
<polyline fill="none" points="217,-936.5 272,-936.5 " stroke="black"/>
<text font-family="Times,serif" font-size="14.00" text-anchor="middle" x="244.5" y="-921.3">output:</text>
<polyline fill="none" points="272,-913.5 272,-959.5 " stroke="black"/>
<text font-family="Times,serif" font-size="14.00" text-anchor="middle" x="324" y="-944.3">(None, 9, 9, 48)</text>
<polyline fill="none" points="272,-936.5 376,-936.5 " stroke="black"/>
<text font-family="Times,serif" font-size="14.00" text-anchor="middle" x="324" y="-921.3">(None, 9, 9, 48)</text>
</g>
<!-- 140156326655984&#45;&gt;140156326656208 -->
<g class="edge" id="edge10"><title>140156326655984-&gt;140156326656208</title>
<path d="M234,-996.366C234,-988.152 234,-978.658 234,-969.725" fill="none" stroke="black"/>
<polygon fill="black" points="237.5,-969.607 234,-959.607 230.5,-969.607 237.5,-969.607" stroke="black"/>
</g>
<!-- 140156326656264 -->
<g class="node" id="node11"><title>140156326656264</title>
<polygon fill="none" points="93,-830.5 93,-876.5 375,-876.5 375,-830.5 93,-830.5" stroke="black"/>
<text font-family="Times,serif" font-size="14.00" text-anchor="middle" x="154.5" y="-849.8">conv2d_5: Conv2D</text>
<polyline fill="none" points="216,-830.5 216,-876.5 " stroke="black"/>
<text font-family="Times,serif" font-size="14.00" text-anchor="middle" x="243.5" y="-861.3">input:</text>
<polyline fill="none" points="216,-853.5 271,-853.5 " stroke="black"/>
<text font-family="Times,serif" font-size="14.00" text-anchor="middle" x="243.5" y="-838.3">output:</text>
<polyline fill="none" points="271,-830.5 271,-876.5 " stroke="black"/>
<text font-family="Times,serif" font-size="14.00" text-anchor="middle" x="323" y="-861.3">(None, 9, 9, 48)</text>
<polyline fill="none" points="271,-853.5 375,-853.5 " stroke="black"/>
<text font-family="Times,serif" font-size="14.00" text-anchor="middle" x="323" y="-838.3">(None, 7, 7, 64)</text>
</g>
<!-- 140156326656208&#45;&gt;140156326656264 -->
<g class="edge" id="edge11"><title>140156326656208-&gt;140156326656264</title>
<path d="M234,-913.366C234,-905.152 234,-895.658 234,-886.725" fill="none" stroke="black"/>
<polygon fill="black" points="237.5,-886.607 234,-876.607 230.5,-886.607 237.5,-886.607" stroke="black"/>
</g>
<!-- 140156326656544 -->
<g class="node" id="node12"><title>140156326656544</title>
<polygon fill="none" points="51,-747.5 51,-793.5 417,-793.5 417,-747.5 51,-747.5" stroke="black"/>
<text font-family="Times,serif" font-size="14.00" text-anchor="middle" x="154.5" y="-766.8">max_pooling2d_5: MaxPooling2D</text>
<polyline fill="none" points="258,-747.5 258,-793.5 " stroke="black"/>
<text font-family="Times,serif" font-size="14.00" text-anchor="middle" x="285.5" y="-778.3">input:</text>
<polyline fill="none" points="258,-770.5 313,-770.5 " stroke="black"/>
<text font-family="Times,serif" font-size="14.00" text-anchor="middle" x="285.5" y="-755.3">output:</text>
<polyline fill="none" points="313,-747.5 313,-793.5 " stroke="black"/>
<text font-family="Times,serif" font-size="14.00" text-anchor="middle" x="365" y="-778.3">(None, 7, 7, 64)</text>
<polyline fill="none" points="313,-770.5 417,-770.5 " stroke="black"/>
<text font-family="Times,serif" font-size="14.00" text-anchor="middle" x="365" y="-755.3">(None, 3, 3, 64)</text>
</g>
<!-- 140156326656264&#45;&gt;140156326656544 -->
<g class="edge" id="edge12"><title>140156326656264-&gt;140156326656544</title>
<path d="M234,-830.366C234,-822.152 234,-812.658 234,-803.725" fill="none" stroke="black"/>
<polygon fill="black" points="237.5,-803.607 234,-793.607 230.5,-803.607 237.5,-803.607" stroke="black"/>
</g>
<!-- 140156326656768 -->
<g class="node" id="node13"><title>140156326656768</title>
<polygon fill="none" points="92,-664.5 92,-710.5 376,-710.5 376,-664.5 92,-664.5" stroke="black"/>
<text font-family="Times,serif" font-size="14.00" text-anchor="middle" x="154.5" y="-683.8">dropout_6: Dropout</text>
<polyline fill="none" points="217,-664.5 217,-710.5 " stroke="black"/>
<text font-family="Times,serif" font-size="14.00" text-anchor="middle" x="244.5" y="-695.3">input:</text>
<polyline fill="none" points="217,-687.5 272,-687.5 " stroke="black"/>
<text font-family="Times,serif" font-size="14.00" text-anchor="middle" x="244.5" y="-672.3">output:</text>
<polyline fill="none" points="272,-664.5 272,-710.5 " stroke="black"/>
<text font-family="Times,serif" font-size="14.00" text-anchor="middle" x="324" y="-695.3">(None, 3, 3, 64)</text>
<polyline fill="none" points="272,-687.5 376,-687.5 " stroke="black"/>
<text font-family="Times,serif" font-size="14.00" text-anchor="middle" x="324" y="-672.3">(None, 3, 3, 64)</text>
</g>
<!-- 140156326656544&#45;&gt;140156326656768 -->
<g class="edge" id="edge13"><title>140156326656544-&gt;140156326656768</title>
<path d="M234,-747.366C234,-739.152 234,-729.658 234,-720.725" fill="none" stroke="black"/>
<polygon fill="black" points="237.5,-720.607 234,-710.607 230.5,-720.607 237.5,-720.607" stroke="black"/>
</g>
<!-- 140156326656824 -->
<g class="node" id="node14"><title>140156326656824</title>
<polygon fill="none" points="93,-581.5 93,-627.5 375,-627.5 375,-581.5 93,-581.5" stroke="black"/>
<text font-family="Times,serif" font-size="14.00" text-anchor="middle" x="154.5" y="-600.8">conv2d_6: Conv2D</text>
<polyline fill="none" points="216,-581.5 216,-627.5 " stroke="black"/>
<text font-family="Times,serif" font-size="14.00" text-anchor="middle" x="243.5" y="-612.3">input:</text>
<polyline fill="none" points="216,-604.5 271,-604.5 " stroke="black"/>
<text font-family="Times,serif" font-size="14.00" text-anchor="middle" x="243.5" y="-589.3">output:</text>
<polyline fill="none" points="271,-581.5 271,-627.5 " stroke="black"/>
<text font-family="Times,serif" font-size="14.00" text-anchor="middle" x="323" y="-612.3">(None, 3, 3, 64)</text>
<polyline fill="none" points="271,-604.5 375,-604.5 " stroke="black"/>
<text font-family="Times,serif" font-size="14.00" text-anchor="middle" x="323" y="-589.3">(None, 1, 1, 64)</text>
</g>
<!-- 140156326656768&#45;&gt;140156326656824 -->
<g class="edge" id="edge14"><title>140156326656768-&gt;140156326656824</title>
<path d="M234,-664.366C234,-656.152 234,-646.658 234,-637.725" fill="none" stroke="black"/>
<polygon fill="black" points="237.5,-637.607 234,-627.607 230.5,-637.607 237.5,-637.607" stroke="black"/>
</g>
<!-- 140156326657104 -->
<g class="node" id="node15"><title>140156326657104</title>
<polygon fill="none" points="0,-498.5 0,-544.5 468,-544.5 468,-498.5 0,-498.5" stroke="black"/>
<text font-family="Times,serif" font-size="14.00" text-anchor="middle" x="154.5" y="-517.8">global_average_pooling2d: GlobalAveragePooling2D</text>
<polyline fill="none" points="309,-498.5 309,-544.5 " stroke="black"/>
<text font-family="Times,serif" font-size="14.00" text-anchor="middle" x="336.5" y="-529.3">input:</text>
<polyline fill="none" points="309,-521.5 364,-521.5 " stroke="black"/>
<text font-family="Times,serif" font-size="14.00" text-anchor="middle" x="336.5" y="-506.3">output:</text>
<polyline fill="none" points="364,-498.5 364,-544.5 " stroke="black"/>
<text font-family="Times,serif" font-size="14.00" text-anchor="middle" x="416" y="-529.3">(None, 1, 1, 64)</text>
<polyline fill="none" points="364,-521.5 468,-521.5 " stroke="black"/>
<text font-family="Times,serif" font-size="14.00" text-anchor="middle" x="416" y="-506.3">(None, 64)</text>
</g>
<!-- 140156326656824&#45;&gt;140156326657104 -->
<g class="edge" id="edge15"><title>140156326656824-&gt;140156326657104</title>
<path d="M234,-581.366C234,-573.152 234,-563.658 234,-554.725" fill="none" stroke="black"/>
<polygon fill="black" points="237.5,-554.607 234,-544.607 230.5,-554.607 237.5,-554.607" stroke="black"/>
</g>
<!-- 140156326657328 -->
<g class="node" id="node16"><title>140156326657328</title>
<polygon fill="none" points="106,-415.5 106,-461.5 362,-461.5 362,-415.5 106,-415.5" stroke="black"/>
<text font-family="Times,serif" font-size="14.00" text-anchor="middle" x="168.5" y="-434.8">dropout_7: Dropout</text>
<polyline fill="none" points="231,-415.5 231,-461.5 " stroke="black"/>
<text font-family="Times,serif" font-size="14.00" text-anchor="middle" x="258.5" y="-446.3">input:</text>
<polyline fill="none" points="231,-438.5 286,-438.5 " stroke="black"/>
<text font-family="Times,serif" font-size="14.00" text-anchor="middle" x="258.5" y="-423.3">output:</text>
<polyline fill="none" points="286,-415.5 286,-461.5 " stroke="black"/>
<text font-family="Times,serif" font-size="14.00" text-anchor="middle" x="324" y="-446.3">(None, 64)</text>
<polyline fill="none" points="286,-438.5 362,-438.5 " stroke="black"/>
<text font-family="Times,serif" font-size="14.00" text-anchor="middle" x="324" y="-423.3">(None, 64)</text>
</g>
<!-- 140156326657104&#45;&gt;140156326657328 -->
<g class="edge" id="edge16"><title>140156326657104-&gt;140156326657328</title>
<path d="M234,-498.366C234,-490.152 234,-480.658 234,-471.725" fill="none" stroke="black"/>
<polygon fill="black" points="237.5,-471.607 234,-461.607 230.5,-471.607 237.5,-471.607" stroke="black"/>
</g>
<!-- 140156326657272 -->
<g class="node" id="node17"><title>140156326657272</title>
<polygon fill="none" points="114,-332.5 114,-378.5 354,-378.5 354,-332.5 114,-332.5" stroke="black"/>
<text font-family="Times,serif" font-size="14.00" text-anchor="middle" x="165" y="-351.8">dense_2: Dense</text>
<polyline fill="none" points="216,-332.5 216,-378.5 " stroke="black"/>
<text font-family="Times,serif" font-size="14.00" text-anchor="middle" x="243.5" y="-363.3">input:</text>
<polyline fill="none" points="216,-355.5 271,-355.5 " stroke="black"/>
<text font-family="Times,serif" font-size="14.00" text-anchor="middle" x="243.5" y="-340.3">output:</text>
<polyline fill="none" points="271,-332.5 271,-378.5 " stroke="black"/>
<text font-family="Times,serif" font-size="14.00" text-anchor="middle" x="312.5" y="-363.3">(None, 64)</text>
<polyline fill="none" points="271,-355.5 354,-355.5 " stroke="black"/>
<text font-family="Times,serif" font-size="14.00" text-anchor="middle" x="312.5" y="-340.3">(None, 500)</text>
</g>
<!-- 140156326657328&#45;&gt;140156326657272 -->
<g class="edge" id="edge17"><title>140156326657328-&gt;140156326657272</title>
<path d="M234,-415.366C234,-407.152 234,-397.658 234,-388.725" fill="none" stroke="black"/>
<polygon fill="black" points="237.5,-388.607 234,-378.607 230.5,-388.607 237.5,-388.607" stroke="black"/>
</g>
<!-- 140156326657664 -->
<g class="node" id="node18"><title>140156326657664</title>
<polygon fill="none" points="102.5,-249.5 102.5,-295.5 365.5,-295.5 365.5,-249.5 102.5,-249.5" stroke="black"/>
<text font-family="Times,serif" font-size="14.00" text-anchor="middle" x="165" y="-268.8">dropout_8: Dropout</text>
<polyline fill="none" points="227.5,-249.5 227.5,-295.5 " stroke="black"/>
<text font-family="Times,serif" font-size="14.00" text-anchor="middle" x="255" y="-280.3">input:</text>
<polyline fill="none" points="227.5,-272.5 282.5,-272.5 " stroke="black"/>
<text font-family="Times,serif" font-size="14.00" text-anchor="middle" x="255" y="-257.3">output:</text>
<polyline fill="none" points="282.5,-249.5 282.5,-295.5 " stroke="black"/>
<text font-family="Times,serif" font-size="14.00" text-anchor="middle" x="324" y="-280.3">(None, 500)</text>
<polyline fill="none" points="282.5,-272.5 365.5,-272.5 " stroke="black"/>
<text font-family="Times,serif" font-size="14.00" text-anchor="middle" x="324" y="-257.3">(None, 500)</text>
</g>
<!-- 140156326657272&#45;&gt;140156326657664 -->
<g class="edge" id="edge18"><title>140156326657272-&gt;140156326657664</title>
<path d="M234,-332.366C234,-324.152 234,-314.658 234,-305.725" fill="none" stroke="black"/>
<polygon fill="black" points="237.5,-305.607 234,-295.607 230.5,-305.607 237.5,-305.607" stroke="black"/>
</g>
<!-- 140156326657832 -->
<g class="node" id="node19"><title>140156326657832</title>
<polygon fill="none" points="114,-166.5 114,-212.5 354,-212.5 354,-166.5 114,-166.5" stroke="black"/>
<text font-family="Times,serif" font-size="14.00" text-anchor="middle" x="165" y="-185.8">dense_3: Dense</text>
<polyline fill="none" points="216,-166.5 216,-212.5 " stroke="black"/>
<text font-family="Times,serif" font-size="14.00" text-anchor="middle" x="243.5" y="-197.3">input:</text>
<polyline fill="none" points="216,-189.5 271,-189.5 " stroke="black"/>
<text font-family="Times,serif" font-size="14.00" text-anchor="middle" x="243.5" y="-174.3">output:</text>
<polyline fill="none" points="271,-166.5 271,-212.5 " stroke="black"/>
<text font-family="Times,serif" font-size="14.00" text-anchor="middle" x="312.5" y="-197.3">(None, 500)</text>
<polyline fill="none" points="271,-189.5 354,-189.5 " stroke="black"/>
<text font-family="Times,serif" font-size="14.00" text-anchor="middle" x="312.5" y="-174.3">(None, 90)</text>
</g>
<!-- 140156326657664&#45;&gt;140156326657832 -->
<g class="edge" id="edge19"><title>140156326657664-&gt;140156326657832</title>
<path d="M234,-249.366C234,-241.152 234,-231.658 234,-222.725" fill="none" stroke="black"/>
<polygon fill="black" points="237.5,-222.607 234,-212.607 230.5,-222.607 237.5,-222.607" stroke="black"/>
</g>
<!-- 140156326609080 -->
<g class="node" id="node20"><title>140156326609080</title>
<polygon fill="none" points="106,-83.5 106,-129.5 362,-129.5 362,-83.5 106,-83.5" stroke="black"/>
<text font-family="Times,serif" font-size="14.00" text-anchor="middle" x="168.5" y="-102.8">dropout_9: Dropout</text>
<polyline fill="none" points="231,-83.5 231,-129.5 " stroke="black"/>
<text font-family="Times,serif" font-size="14.00" text-anchor="middle" x="258.5" y="-114.3">input:</text>
<polyline fill="none" points="231,-106.5 286,-106.5 " stroke="black"/>
<text font-family="Times,serif" font-size="14.00" text-anchor="middle" x="258.5" y="-91.3">output:</text>
<polyline fill="none" points="286,-83.5 286,-129.5 " stroke="black"/>
<text font-family="Times,serif" font-size="14.00" text-anchor="middle" x="324" y="-114.3">(None, 90)</text>
<polyline fill="none" points="286,-106.5 362,-106.5 " stroke="black"/>
<text font-family="Times,serif" font-size="14.00" text-anchor="middle" x="324" y="-91.3">(None, 90)</text>
</g>
<!-- 140156326657832&#45;&gt;140156326609080 -->
<g class="edge" id="edge20"><title>140156326657832-&gt;140156326609080</title>
<path d="M234,-166.366C234,-158.152 234,-148.658 234,-139.725" fill="none" stroke="black"/>
<polygon fill="black" points="237.5,-139.607 234,-129.607 230.5,-139.607 237.5,-139.607" stroke="black"/>
</g>
<!-- 140156326609136 -->
<g class="node" id="node21"><title>140156326609136</title>
<polygon fill="none" points="117.5,-0.5 117.5,-46.5 350.5,-46.5 350.5,-0.5 117.5,-0.5" stroke="black"/>
<text font-family="Times,serif" font-size="14.00" text-anchor="middle" x="168.5" y="-19.8">dense_4: Dense</text>
<polyline fill="none" points="219.5,-0.5 219.5,-46.5 " stroke="black"/>
<text font-family="Times,serif" font-size="14.00" text-anchor="middle" x="247" y="-31.3">input:</text>
<polyline fill="none" points="219.5,-23.5 274.5,-23.5 " stroke="black"/>
<text font-family="Times,serif" font-size="14.00" text-anchor="middle" x="247" y="-8.3">output:</text>
<polyline fill="none" points="274.5,-0.5 274.5,-46.5 " stroke="black"/>
<text font-family="Times,serif" font-size="14.00" text-anchor="middle" x="312.5" y="-31.3">(None, 90)</text>
<polyline fill="none" points="274.5,-23.5 350.5,-23.5 " stroke="black"/>
<text font-family="Times,serif" font-size="14.00" text-anchor="middle" x="312.5" y="-8.3">(None, 4)</text>
</g>
<!-- 140156326609080&#45;&gt;140156326609136 -->
<g class="edge" id="edge21"><title>140156326609080-&gt;140156326609136</title>
<path d="M234,-83.3664C234,-75.1516 234,-65.6579 234,-56.7252" fill="none" stroke="black"/>
<polygon fill="black" points="237.5,-56.6068 234,-46.6068 230.5,-56.6069 237.5,-56.6068" stroke="black"/>
</g>
<!-- 140156326609808 -->
<g class="node" id="node22"><title>140156326609808</title>
<polygon fill="none" points="175,-1743.5 175,-1779.5 293,-1779.5 293,-1743.5 175,-1743.5" stroke="black"/>
<text font-family="Times,serif" font-size="14.00" text-anchor="middle" x="234" y="-1757.8">140156326609808</text>
</g>
<!-- 140156326609808&#45;&gt;140156326654304 -->
<g class="edge" id="edge1"><title>140156326609808-&gt;140156326654304</title>
<path d="M234,-1743.25C234,-1735.36 234,-1725.75 234,-1716.6" fill="none" stroke="black"/>
<polygon fill="black" points="237.5,-1716.59 234,-1706.59 230.5,-1716.59 237.5,-1716.59" stroke="black"/>
</g>
</g>
</svg>